<svg xmlns="http://www.w3.org/2000/svg" width="1000" height="1000" viewBox="0 0 1000 1000" fill="none">
  <defs>
    <radialGradient id="glow" cx="50%" cy="34%" r="60%">
      <stop offset="0%" stop-color="#5a3a86" stop-opacity="0.45"/>
      <stop offset="55%" stop-color="#1b1430" stop-opacity="0.25"/>
      <stop offset="100%" stop-color="#0a0a0c" stop-opacity="0"/>
    </radialGradient>
    <linearGradient id="accent" x1="0" y1="0" x2="1" y2="0">
      <stop offset="0%" stop-color="#5476ED"/>
      <stop offset="50%" stop-color="#9D41DB"/>
      <stop offset="100%" stop-color="#F65A6F"/>
    </linearGradient>
  </defs>
  <rect width="1000" height="1000" fill="#0a0a0c"/>
  <rect width="1000" height="1000" fill="url(#glow)"/>
  <rect x="24" y="24" width="952" height="952" fill="none" stroke="#ffffff" stroke-opacity="0.10"/>
  <svg x="220" y="250" width="560" height="177" viewBox="0 0 871 275"><path fill="#fff" d="M344.6 83q-6.5 0-10.8-1.9t-6.4-4q-2-2.2-2-2.6l2.5-3.9q0 .3 1.9 2.3 1.9 1.9 5.5 3.6 3.7 1.6 9 1.6 6.3 0 9.9-3.6 3.6-3.7 3.6-9.1 0-3.7-1.8-6.2t-4.5-4q-2.6-1.5-7.1-3.4-5.2-2.1-8.4-4c-3.2-1.9-3.933-3-5.4-5.2q-2.2-3.4-2.2-8.6 0-8.2 5.2-13 5.2-4.9 13.9-4.9 4.3 0 7.7 1.3 3.5 1.2 5.6 2.7 2.1 1.4 2.1 1.6l-1 4.4q0-.2-2-1.6c-2-1.4-3.033-1.8-5.1-2.6q-3.1-1.2-6.9-1.2-5.6 0-8.8 3.1t-3.2 8.4q0 3.7 1.7 6.2 1.8 2.4 4.4 3.9 2.7 1.5 7.1 3.3 5.3 2.2 8.5 4.2 3.2 1.9 5.4 5.4 2.3 3.5 2.3 9c0 5.5-.867 6.933-2.6 9.8q-2.5 4.2-7.2 6.6T344.6 83m34.823-1V17h7.6v65zm26.465 0V17h7.9l33.2 53.6-.3-2.4V17h5.5v65h-6.6l-34.6-55.4h-.1l.5 3.1V82zm87.237 1q-12.7 0-19.7-8.8t-7-24.5q0-15.9 7.6-24.7 7.6-8.9 21.5-8.9 4.6 0 8.8 1.2 4.3 1.2 7.3 2.7t3 1.6l-.9 4.8q0-.1-2.9-1.5t-6.8-2.6q-3.8-1.2-7.7-1.2-11.1 0-16.5 7.2-5.3 7.1-5.3 21.4 0 14 5.2 21.2 5.2 7.1 14.5 7.1 7.5 0 10.9-3.6t4.4-7.2V52.5h-13.3v-4.3h19.7V82h-3.7l-1.9-7.1q-2.4 3.5-6.6 5.8t-10.6 2.3m32.812-1 21.9-65h8.9l21.5 65h-7.9l-6.8-20h-25.5l-6.8 20zm13.5-24.1h22.8l-11.3-35.1zM589.873 17h15.6q10 0 15.5 5.2 5.6 5.2 5.6 15.4 0 7.6-3 12.5-3 4.8-7.8 7-4.7 2.1-10.1 2.1h-8.2V82h-7.6zm14.7 38q14 0 14-17.1 0-8.4-3.6-12.4-3.6-4.1-10.3-4.1h-7.2V55zm58.109 28q-8.7 0-15-4-6.2-4-9.5-11.5-3.3-7.6-3.3-17.9t3.3-17.8q3.3-7.6 9.5-11.6 6.3-4.1 15-4.1t15 4.1q6.3 4 9.6 11.6 3.4 7.5 3.4 17.8t-3.4 17.9q-3.3 7.5-9.6 11.5t-15 4m0-4.8q9.6 0 14.7-7.3 5.2-7.3 5.2-21.3 0-13.9-5.2-21.3-5.1-7.4-14.7-7.4-9.5 0-14.6 7.4t-5.1 21.3q0 14 5 21.3 5.1 7.3 14.7 7.3m42.23-61.2h15.7q9.9 0 15.5 5.2 5.6 5.1 5.6 14.7 0 7.7-3.3 12.6t-8.7 7l16.3 25.5h-8.7l-14.9-24.1h-9.9V82h-7.6zm15.7 36.4q6.5 0 9.8-3.7t3.3-12.5q0-15.8-14-15.8h-7.2v32zM758.818 82V17h35v4.8h-27.4v25h25.1v4.6h-25.1v25.8h29.6V82zM340.4 262l-17.9-65h8l14.8 56.3 15.9-56.3h6.7l16.2 56.2 14.4-56.2h5.6l-17.5 65h-7l-16.2-55.4-16 55.4zm74.766 0v-65h35v4.8h-27.4v25h25.1v4.6h-25.1v25.8h29.6v4.8zm50.683 0v-65h35v4.8h-27.4v25h25.1v4.6h-25.1v25.8h29.6v4.8zm50.684 0v-65h7.6v35.4l7.9-7 21.9-28.4h6.1l-22.8 29 25.9 36h-9.5l-22-30.2-7.5 6.3V262z"/><path fill="#F480D7" d="M330.4 107h16.4q9.8 0 15.1 4.5 5.4 4.4 5.4 11.7 0 5.4-2.7 9t-6.7 5.7q5.8 1.6 9.1 5.6 3.4 4 3.4 10.1 0 8.8-5.9 13.6-5.8 4.8-17.6 4.8h-16.5zm19.4 29.4q2.1 0 4.4-1.2 2.4-1.2 4.1-4 1.7-2.9 1.7-7.5 0-6.1-3.7-9.2t-9.8-3.1H338v25zm-3.2 31.2q16.3 0 16.3-14.3 0-6.4-3.5-9.6c-3.5-3.2-5.4-3.2-9.2-3.2H338v27.1zm37.999 4.4v-65h7.6v60.2h28.9v4.8zm70.271 1q-8.7 0-15-4-6.2-4-9.5-11.5-3.3-7.6-3.3-17.9t3.3-17.8q3.3-7.6 9.5-11.6 6.3-4.1 15-4.1t15 4.1q6.3 4 9.6 11.6 3.4 7.5 3.4 17.8t-3.4 17.9q-3.3 7.5-9.6 11.5t-15 4m0-4.8q9.6 0 14.7-7.3 5.2-7.3 5.2-21.3 0-13.9-5.2-21.3-5.1-7.4-14.7-7.4-9.5 0-14.6 7.4t-5.1 21.3q0 14 5 21.3 5.1 7.3 14.7 7.3m66.129 4.8q-13.5 0-21-8.7-7.5-8.8-7.5-24.2 0-10.3 3.4-18 3.5-7.7 9.8-11.8 6.4-4.2 14.8-4.2 4.6 0 8.8 1.2 4.3 1.2 7.3 2.7t3 1.6l-.9 4.8q0-.1-2.9-1.5t-6.8-2.6q-3.8-1.2-7.7-1.2-9.7 0-15.2 7.4-5.5 7.3-5.5 21.4 0 13.9 5.6 21t15.7 7.1q5.301 0 9.3-2.2t6.3-4.7q2.4-2.5 2.4-2.9l2.8 3.2q0 .5-2.6 3.5-2.6 2.9-7.5 5.5-4.8 2.6-11.6 2.6m33.131-1v-65h7.6v35.4l7.9-7 21.9-28.4h6.1l-22.8 29 25.9 36h-9.5l-22-30.2-7.5 6.3V172zm79.955 1q-13.5 0-21-8.7-7.5-8.8-7.5-24.2 0-10.3 3.4-18 3.5-7.7 9.8-11.8 6.4-4.2 14.8-4.2 4.6 0 8.8 1.2 4.3 1.2 7.3 2.7t3 1.6l-.9 4.8q0-.1-2.9-1.5t-6.8-2.6q-3.8-1.2-7.7-1.2-9.7 0-15.2 7.4-5.5 7.3-5.5 21.4 0 13.9 5.6 21t15.7 7.1q5.3 0 9.3-2.2t6.3-4.7q2.4-2.5 2.4-2.9l2.8 3.2q0 .5-2.6 3.5-2.6 2.9-7.5 5.5-4.8 2.6-11.6 2.6m33.131-1v-65h7.6v29.2h29.7V107h7.6v65h-7.6v-31.2h-29.7V172zm56.67 0 21.9-65h8.9l21.5 65h-7.9l-6.8-20h-25.5l-6.8 20zm13.5-24.1h22.8l-11.3-35.1zm50.436 24.1v-65h7.6v65zm26.465 0v-65h7.9l33.2 53.6-.3-2.4V107h5.5v65h-6.6l-34.6-55.4h-.1l.5 3.1V172z"/><path fill="url(#a)" d="M330.4 107h16.4q9.8 0 15.1 4.5 5.4 4.4 5.4 11.7 0 5.4-2.7 9t-6.7 5.7q5.8 1.6 9.1 5.6 3.4 4 3.4 10.1 0 8.8-5.9 13.6-5.8 4.8-17.6 4.8h-16.5zm19.4 29.4q2.1 0 4.4-1.2 2.4-1.2 4.1-4 1.7-2.9 1.7-7.5 0-6.1-3.7-9.2t-9.8-3.1H338v25zm-3.2 31.2q16.3 0 16.3-14.3 0-6.4-3.5-9.6c-3.5-3.2-5.4-3.2-9.2-3.2H338v27.1zm37.999 4.4v-65h7.6v60.2h28.9v4.8zm70.271 1q-8.7 0-15-4-6.2-4-9.5-11.5-3.3-7.6-3.3-17.9t3.3-17.8q3.3-7.6 9.5-11.6 6.3-4.1 15-4.1t15 4.1q6.3 4 9.6 11.6 3.4 7.5 3.4 17.8t-3.4 17.9q-3.3 7.5-9.6 11.5t-15 4m0-4.8q9.6 0 14.7-7.3 5.2-7.3 5.2-21.3 0-13.9-5.2-21.3-5.1-7.4-14.7-7.4-9.5 0-14.6 7.4t-5.1 21.3q0 14 5 21.3 5.1 7.3 14.7 7.3m66.129 4.8q-13.5 0-21-8.7-7.5-8.8-7.5-24.2 0-10.3 3.4-18 3.5-7.7 9.8-11.8 6.4-4.2 14.8-4.2 4.6 0 8.8 1.2 4.3 1.2 7.3 2.7t3 1.6l-.9 4.8q0-.1-2.9-1.5t-6.8-2.6q-3.8-1.2-7.7-1.2-9.7 0-15.2 7.4-5.5 7.3-5.5 21.4 0 13.9 5.6 21t15.7 7.1q5.301 0 9.3-2.2t6.3-4.7q2.4-2.5 2.4-2.9l2.8 3.2q0 .5-2.6 3.5-2.6 2.9-7.5 5.5-4.8 2.6-11.6 2.6m33.131-1v-65h7.6v35.4l7.9-7 21.9-28.4h6.1l-22.8 29 25.9 36h-9.5l-22-30.2-7.5 6.3V172zm79.955 1q-13.5 0-21-8.7-7.5-8.8-7.5-24.2 0-10.3 3.4-18 3.5-7.7 9.8-11.8 6.4-4.2 14.8-4.2 4.6 0 8.8 1.2 4.3 1.2 7.3 2.7t3 1.6l-.9 4.8q0-.1-2.9-1.5t-6.8-2.6q-3.8-1.2-7.7-1.2-9.7 0-15.2 7.4-5.5 7.3-5.5 21.4 0 13.9 5.6 21t15.7 7.1q5.3 0 9.3-2.2t6.3-4.7q2.4-2.5 2.4-2.9l2.8 3.2q0 .5-2.6 3.5-2.6 2.9-7.5 5.5-4.8 2.6-11.6 2.6m33.131-1v-65h7.6v29.2h29.7V107h7.6v65h-7.6v-31.2h-29.7V172zm56.67 0 21.9-65h8.9l21.5 65h-7.9l-6.8-20h-25.5l-6.8 20zm13.5-24.1h22.8l-11.3-35.1zm50.436 24.1v-65h7.6v65zm26.465 0v-65h7.9l33.2 53.6-.3-2.4V107h5.5v65h-6.6l-34.6-55.4h-.1l.5 3.1V172z"/><path fill="url(#b)" d="m133.577 17.813 59.306 34.639-61.592 32.261-58.244-33.311z"/><path fill="url(#c)" d="m68.498 127.327 60.18 33.939-61.941 33.106-56.67-32.406z"/><path fill="url(#d)" d="m197.431 127.327 58.606 34.814L195.32 194.3l-58.244-33.034z"/><path fill="url(#e)" d="m201.16 48.931.001 71.041 64.099 39.363v75.749l-68.473 39.538-64.11-35.987v.123l-64.204 36.039L0 235.259V159.51l64.1-39.363v-71.04l68.484-42.79zM9.693 162.66l-.04 67.481 59.244 34.814 59.489-34.346-.082-68.649-60.14-33.856zm127.008-.7.173 68.474 59.49 34.346 59.244-34.814.054-67.306-.068.038-58.497-34.594zM72.671 52.095v68.457l59.913 35.054v-.12l60.098-35.109-.175-67.232-59.305-34.64z"/><defs><linearGradient id="a" x1="207.101" x2="977.099" y1="-112" y2="136.48" gradientUnits="userSpaceOnUse"><stop stop-color="#F65A6F"/><stop offset=".38" stop-color="#9454C4"/><stop offset=".731" stop-color="#5476ED"/><stop offset="1" stop-color="#3FD7DB"/></linearGradient><linearGradient id="b" x1="139.1" x2="108.323" y1="78.612" y2="25.303" gradientUnits="userSpaceOnUse"><stop stop-color="#D75294" stop-opacity="0"/><stop offset="1" stop-color="#D75294"/></linearGradient><linearGradient id="c" x1="74.546" x2="43.769" y1="188.27" y2="134.961" gradientUnits="userSpaceOnUse"><stop stop-color="#AC45C8" stop-opacity="0"/><stop offset="1" stop-color="#AC45C8"/></linearGradient><linearGradient id="d" x1="203.129" x2="172.351" y1="188.198" y2="134.889" gradientUnits="userSpaceOnUse"><stop stop-color="#825ED0" stop-opacity="0"/><stop offset="1" stop-color="#825ED0"/></linearGradient><linearGradient id="e" x1="76.737" x2="241.83" y1="-10.093" y2="283.318" gradientUnits="userSpaceOnUse"><stop stop-color="#F65A6F"/><stop offset=".38" stop-color="#9D41DB"/><stop offset=".731" stop-color="#5476ED"/><stop offset="1" stop-color="#3FD7DB"/></linearGradient></defs></svg>
  <rect x="496" y="565" width="8" height="8" transform="rotate(45 500 569)" fill="url(#accent)"/>
  <line x1="330" y1="569" x2="452" y2="569" stroke="#ffffff" stroke-opacity="0.18"/>
  <line x1="548" y1="569" x2="670" y2="569" stroke="#ffffff" stroke-opacity="0.18"/>
  <text x="500" y="690" text-anchor="middle" fill="#ffffff" font-family="Georgia, 'Times New Roman', serif" font-size="128" letter-spacing="2">VISITOR</text>
  <text x="500" y="752" text-anchor="middle" fill="#F480D7" font-family="Georgia, 'Times New Roman', serif" font-size="40" letter-spacing="14">PASS</text>
</svg>
